<svg xmlns="http://www.w3.org/2000/svg" xmlns:cc="http://web.resource.org/cc/" xmlns:svg="http://www.w3.org/2000/svg" id="svg2" width="188" height="188" version="1.0"><metadata id="metadata7"/><path style="fill:#54c8f0;fill-opacity:1;fill-rule:evenodd;stroke:#00789f;stroke-width:0;stroke-linecap:butt;stroke-linejoin:miter;stroke-miterlimit:4;stroke-dasharray:none;stroke-opacity:1" id="path1877" d="M 133.40317,9.9375 C 122.6693,9.9563883 117.85668,22.171017 117.70956,31.318141 C 113.2229,50.404679 110.02026,71.100694 96.090675,85.96875 C 92.733909,70.772583 92.498874,55.033564 90.157851,39.608853 C 88.825121,29.664962 86.963825,19.668467 82.653175,10.5625 C 70.867379,9.5439074 64.278162,21.652112 60.76856,31.079327 C 44.392606,66.986455 30.786472,104.32609 13.184425,139.5625 C 11.499495,147.23815 12.778937,156.02179 18.684425,161.59375 C 40.450039,142.7871 49.876489,114.56131 62.653175,89.625 C 65.658731,82.514382 68.620421,75.384808 71.715675,68.3125 C 76.731551,87.59058 78.104103,107.98261 85.590675,126.59375 C 95.859713,130.30638 104.89942,120.85336 108.37192,112.09375 C 117.95942,97.105244 125.55228,81.043792 132.59067,64.75 C 141.22611,102.86149 139.9051,143.97893 157.55942,179.46875 C 163.23688,184.76242 176.09597,180.31866 173.59067,171.6875 C 160.51152,118.46886 155.58836,63.280292 139.87192,10.6875 C 137.7206,10.337918 135.5969,9.7845398 133.40317,9.9375 z"/><g id="g1915" transform="translate(50.06939,0)" style="stroke-width:0;stroke-miterlimit:4;stroke-dasharray:none"><path style="fill:none;stroke-width:0;stroke-miterlimit:4;stroke-dasharray:none" id="path1919" d="M 0,94 C 0,62.666667 0,31.333333 0,0 C 32.333333,0 64.666667,0 97,0 C 97,62.666667 97,125.33333 97,188 C 64.666667,188 32.333333,188 0,188 C 0,156.66667 0,125.33333 0,94 z"/><path style="fill:#666;fill-opacity:1;stroke:#888;stroke-width:0;marker-mid:none;stroke-miterlimit:4;stroke-dasharray:none;stroke-opacity:1" id="path1927" d="M 37.664899,184.58554 C 21.895418,182.55403 5.6661972,167.64367 3.3987193,150.1511 C 1.2240485,135.52701 4.3614628,118.45697 16.450174,108.80568 C 21.75244,105.19169 28.965047,101.14246 35.325463,101.62434 C 35.515961,108.09863 35.134965,115.96793 35.325463,122.44222 C 27.749678,123.28567 20.416427,131.89654 20.569051,139.78073 C 20.754756,150.04074 25.295526,159.46754 35.166718,162.53826 C 46.085307,166.2122 58.583978,165.16727 68.691405,159.05921 C 77.041121,152.55358 77.813587,140.44085 73.446467,131.22303 C 71.482045,126.15057 67.247476,122.42665 61.5,122.44222 L 61.5,140.5 L 45.29359,140.5 L 45.29359,101.62434 L 94.37037,101.62434 L 94.37037,115.60423 L 80.927975,115.72857 C 93.471899,122.87923 94.757645,138.31236 94.114862,149.01935 C 94.566741,167.41218 76.395502,182.4083 58.372879,184.41334 C 51.852471,184.9022 46.335496,184.92793 37.664899,184.58554 z"/><path style="fill:#e92b1c;fill-opacity:1;stroke:#ff594c;stroke-width:0;stroke-miterlimit:4;stroke-dasharray:none;stroke-opacity:1" id="path1925" d="M 2.6030317,93.90175 L 2.5,73.5 L 94.5,73.5 L 94.489423,94 L 2.6030317,93.90175 z"/><path style="fill:#0cd91f;fill-opacity:1;stroke:#6eff7c;stroke-width:0;stroke-miterlimit:4;stroke-dasharray:none;stroke-opacity:1" id="path1917" d="M 37.666668,66.333336 L 37.666668,44.5 L 2,44.5 L 2,25.5 L 37.666668,25.5 L 37.666668,1 L 59,1 L 59,25.5 L 94.5,25.5 L 94.5,44.5 L 59,44.5 L 58.648317,66.287772 L 37.666668,66.333336 z"/></g></svg>