<svg xmlns="http://www.w3.org/2000/svg" xmlns:cc="http://web.resource.org/cc/" xmlns:svg="http://www.w3.org/2000/svg" id="svg2" width="32" height="32" version="1.0"><metadata id="metadata7"/><path style="fill:#54c8f0;fill-opacity:1;fill-rule:evenodd;stroke:#00789f;stroke-width:1px;stroke-linecap:butt;stroke-linejoin:miter;stroke-opacity:1" id="path1877" d="M 12.190477,12.359788 C 10.215168,17.354497 7.9858905,21.925925 5.2486775,26.074073 C 4.4867725,27.174602 2.7513225,28.345679 2.1164019,27.259259 C 1.4814813,26.172839 1.6084657,23.167548 2.6243389,21.502645 C 7.2001162,13.297499 7.7876424,7.9593951 11.597884,1.7777778 C 12.275132,0.67724864 14.730159,0.084656046 15.068783,1.8624339 C 16.141093,6.8853616 15.943563,8.3527336 16.761905,13.629629 C 19.668431,9.199295 19.273369,5.8694885 20.656085,1.9470899 C 21.06164,0.58372984 24.042158,0.16922744 24.465608,1.1851852 C 25.904761,3.6966493 28.698412,23.56261 30.47619,29.968254 C 31.040564,32.028219 27.287478,31.548501 26.751323,30.899471 C 24.465609,27.089947 24.042328,18.201058 22.687831,11.851852 C 21.220459,15.463845 18.455026,20.204586 17.52381,21.164021 C 16.592594,22.123457 14.701941,22.518518 14.05291,20.994709 C 13.319224,18.878306 12.924163,14.984127 12.190477,12.359788 z"/></svg>